<svg width="512" height="512" viewBox="0 0 512 512" fill="none" xmlns="http://www.w3.org/2000/svg">
<g clip-path="url(#clip0_6566_4826)">
<path d="M440 0H72C32.2355 0 0 32.2355 0 72V440C0 479.764 32.2355 512 72 512H440C479.764 512 512 479.764 512 440V72C512 32.2355 479.764 0 440 0Z" fill="#F8D9F8"/>
<path d="M230.747 57.9534C237.741 32.2101 274.259 32.2101 281.253 57.9534V57.9534C286.636 77.7688 311.702 83.947 325.677 68.903V68.903C343.833 49.3585 376.168 66.3292 370.397 92.3738V92.3738C365.955 112.421 385.278 129.54 404.644 122.714V122.714C429.803 113.846 450.548 143.9 433.334 164.279V164.279C420.084 179.966 429.239 204.104 449.559 207.06V207.06C475.957 210.899 480.359 247.151 455.647 257.197V257.197C436.624 264.929 433.513 290.557 450.131 302.617V302.617C471.722 318.285 458.773 352.429 432.222 349.84V349.84C411.785 347.847 397.12 369.093 406.231 387.495V387.495C418.067 411.401 390.733 435.617 368.427 420.986V420.986C351.258 409.723 328.399 421.721 327.914 442.248V442.248C327.285 468.917 291.828 477.657 278.877 454.335V454.335C268.908 436.384 243.092 436.384 233.123 454.335V454.335C220.172 477.657 184.715 468.917 184.086 442.248V442.248C183.601 421.721 160.742 409.723 143.573 420.986V420.986C121.267 435.617 93.9329 411.401 105.769 387.495V387.495C114.88 369.093 100.215 347.847 79.7778 349.84V349.84C53.2275 352.429 40.2781 318.285 61.8685 302.617V302.617C78.4874 290.557 75.3756 264.929 56.3535 257.197V257.197C31.6409 247.151 36.0426 210.899 62.4412 207.06V207.06C82.761 204.104 91.9155 179.966 78.6657 164.279V164.279C61.4523 143.9 82.1967 113.846 107.356 122.714V122.714C126.722 129.54 146.045 112.421 141.603 92.3738V92.3738C135.832 66.3292 168.167 49.3585 186.323 68.903V68.903C200.298 83.947 225.364 77.7688 230.747 57.9534V57.9534Z" fill="#0E1E3D"/>
<path d="M255.5 343C243.591 343 232.416 340.741 221.974 336.224C211.531 331.707 202.35 325.489 194.431 317.569C186.511 309.65 180.293 300.469 175.776 290.026C171.259 279.584 169 268.409 169 256.5C169 246.292 170.731 236.584 174.192 227.373C177.712 218.104 182.463 209.803 188.447 202.47C190.442 199.831 192.788 198.393 195.487 198.159C198.185 197.865 200.473 198.657 202.35 200.535C204.345 202.47 205.254 204.582 205.078 206.87C204.902 209.158 203.993 211.475 202.35 213.822C197.657 219.63 193.962 226.2 191.263 233.533C188.564 240.807 187.215 248.463 187.215 256.5C187.215 265.945 188.946 274.803 192.407 283.075C195.927 291.288 200.825 298.533 207.102 304.81C213.379 311.087 220.624 315.985 228.837 319.505C237.109 323.025 245.996 324.785 255.5 324.785C265.004 324.785 273.862 323.025 282.075 319.505C290.346 315.985 297.591 311.087 303.81 304.81C310.087 298.533 314.956 291.288 318.417 283.075C321.937 274.803 323.697 265.945 323.697 256.5C323.697 246.879 321.908 237.904 318.329 229.573C314.809 221.243 309.852 213.939 303.458 207.662C297.122 201.327 289.76 196.428 281.371 192.967C272.982 189.506 263.977 187.834 254.356 187.951L262.188 178.008V208.542C262.188 210.771 261.484 212.649 260.076 214.174C258.668 215.699 256.849 216.462 254.62 216.462C252.391 216.462 250.543 215.699 249.076 214.174C247.668 212.649 246.964 210.771 246.964 208.542V178.448C246.964 175.866 247.727 173.813 249.252 172.288C250.778 170.763 252.889 170 255.588 170C267.497 170 278.672 172.259 289.114 176.776C299.557 181.234 308.738 187.453 316.657 195.431C324.577 203.35 330.766 212.531 335.224 222.974C339.741 233.416 342 244.591 342 256.5C342 268.409 339.741 279.584 335.224 290.026C330.766 300.469 324.547 309.65 316.569 317.569C308.65 325.489 299.469 331.707 289.026 336.224C278.584 340.741 267.409 343 255.5 343ZM255.5 270.843C252.919 270.843 250.543 270.198 248.372 268.907C246.202 267.558 244.413 265.769 243.005 263.54L217.574 224.557C216.459 222.798 216.136 221.184 216.606 219.718C217.134 218.251 218.131 217.283 219.598 216.814C221.064 216.345 222.678 216.667 224.437 217.782L263.42 244.621C265.414 245.97 266.969 247.7 268.083 249.812C269.257 251.866 269.843 254.095 269.843 256.5C269.843 260.43 268.435 263.804 265.62 266.62C262.862 269.435 259.489 270.843 255.5 270.843Z" fill="#F8D9F8"/>
</g>
<defs>
<clipPath id="clip0_6566_4826">
<rect width="512" height="512" fill="white"/>
</clipPath>
</defs>
</svg>
