<svg width="512" height="512" viewBox="0 0 512 512" fill="none" xmlns="http://www.w3.org/2000/svg">
<g clip-path="url(#clip0_6566_4826)">
<path d="M440 0H72C32.2355 0 0 32.2355 0 72V440C0 479.764 32.2355 512 72 512H440C479.764 512 512 479.764 512 440V72C512 32.2355 479.764 0 440 0Z" fill="#F8D9F8"/>
<path d="M234.653 88.5791C240.565 66.8168 271.435 66.8168 277.347 88.5791V88.5791C281.898 105.33 303.088 110.553 314.902 97.8355V97.8355C330.251 81.3134 357.585 95.6597 352.707 117.677V117.677C348.951 134.624 365.287 149.096 381.658 143.325V143.325C402.926 135.829 420.463 161.235 405.911 178.463V178.463C394.711 191.724 402.449 212.129 419.627 214.628V214.628C441.943 217.874 445.664 248.519 424.773 257.011V257.011C408.693 263.548 406.062 285.213 420.111 295.408V295.408C438.363 308.653 427.416 337.518 404.971 335.329V335.329C387.695 333.644 375.298 351.604 382.999 367.16V367.16C393.005 387.37 369.898 407.841 351.042 395.472V395.472C336.527 385.952 317.203 396.094 316.794 413.447V413.447C316.261 435.992 286.288 443.38 275.339 423.665V423.665C266.912 408.489 245.088 408.489 236.661 423.665V423.665C225.712 443.38 195.739 435.992 195.206 413.447V413.447C194.797 396.094 175.473 385.952 160.958 395.472V395.472C142.102 407.841 118.995 387.37 129.001 367.16V367.16C136.702 351.604 124.305 333.644 107.029 335.329V335.329C84.584 337.518 73.6371 308.653 91.8888 295.408V295.408C105.938 285.213 103.307 263.548 87.2267 257.011V257.011C66.3356 248.519 70.0566 217.874 92.373 214.628V214.628C109.551 212.129 117.289 191.724 106.089 178.463V178.463C91.537 161.235 109.074 135.829 130.342 143.325V143.325C146.713 149.096 163.049 134.624 159.293 117.677V117.677C154.415 95.6597 181.749 81.3134 197.098 97.8355V97.8355C208.912 110.553 230.102 105.33 234.653 88.5791V88.5791Z" fill="#0E1E3D"/>
<path d="M255.5 343C243.591 343 232.416 340.741 221.974 336.224C211.531 331.707 202.35 325.489 194.431 317.569C186.511 309.65 180.293 300.469 175.776 290.026C171.259 279.584 169 268.409 169 256.5C169 246.292 170.731 236.584 174.192 227.373C177.712 218.104 182.463 209.803 188.447 202.47C190.442 199.831 192.788 198.393 195.487 198.159C198.185 197.865 200.473 198.657 202.35 200.535C204.345 202.47 205.254 204.582 205.078 206.87C204.902 209.158 203.993 211.475 202.35 213.822C197.657 219.63 193.962 226.2 191.263 233.533C188.564 240.807 187.215 248.463 187.215 256.5C187.215 265.945 188.946 274.803 192.407 283.075C195.927 291.288 200.825 298.533 207.102 304.81C213.379 311.087 220.624 315.985 228.837 319.505C237.109 323.025 245.996 324.785 255.5 324.785C265.004 324.785 273.862 323.025 282.075 319.505C290.346 315.985 297.591 311.087 303.81 304.81C310.087 298.533 314.956 291.288 318.417 283.075C321.937 274.803 323.697 265.945 323.697 256.5C323.697 246.879 321.908 237.904 318.329 229.573C314.809 221.243 309.852 213.939 303.458 207.662C297.122 201.327 289.76 196.428 281.371 192.967C272.982 189.506 263.977 187.834 254.356 187.951L262.188 178.008V208.542C262.188 210.771 261.484 212.649 260.076 214.174C258.668 215.699 256.849 216.462 254.62 216.462C252.391 216.462 250.543 215.699 249.076 214.174C247.668 212.649 246.964 210.771 246.964 208.542V178.448C246.964 175.866 247.727 173.813 249.252 172.288C250.778 170.763 252.889 170 255.588 170C267.497 170 278.672 172.259 289.114 176.776C299.557 181.234 308.738 187.453 316.657 195.431C324.577 203.35 330.766 212.531 335.224 222.974C339.741 233.416 342 244.591 342 256.5C342 268.409 339.741 279.584 335.224 290.026C330.766 300.469 324.547 309.65 316.569 317.569C308.65 325.489 299.469 331.707 289.026 336.224C278.584 340.741 267.409 343 255.5 343ZM255.5 270.843C252.919 270.843 250.543 270.198 248.372 268.907C246.202 267.558 244.413 265.769 243.005 263.54L217.574 224.557C216.459 222.798 216.136 221.184 216.606 219.718C217.134 218.251 218.131 217.283 219.598 216.814C221.064 216.345 222.678 216.667 224.437 217.782L263.42 244.621C265.414 245.97 266.969 247.7 268.083 249.812C269.257 251.866 269.843 254.095 269.843 256.5C269.843 260.43 268.435 263.804 265.62 266.62C262.862 269.435 259.489 270.843 255.5 270.843Z" fill="#F8D9F8"/>
</g>
<defs>
<clipPath id="clip0_6566_4826">
<rect width="512" height="512" fill="white"/>
</clipPath>
</defs>
</svg>
