<svg width="116" height="115" viewBox="0 0 116 115" fill="none" xmlns="http://www.w3.org/2000/svg">
<g clip-path="url(#clip0_6573_8141)">
<path d="M52.3502 5.55936C53.1917 -1.0785 62.8075 -1.07849 63.649 5.55937C64.3274 10.9099 71.3721 12.4073 74.1681 7.79527C77.6368 2.07359 86.4212 5.98465 84.4901 12.3909C82.9336 17.5548 88.7602 21.7881 93.1904 18.712C98.6864 14.8958 105.121 22.0417 100.751 27.1087C97.2285 31.1931 100.83 37.4303 106.128 36.422C112.701 35.1712 115.673 44.3163 109.62 47.1679C104.741 49.4665 105.494 56.6291 110.744 57.8631C117.257 59.3939 116.252 68.9569 109.563 69.1C104.171 69.2154 101.945 76.065 106.24 79.3278C111.567 83.3755 106.76 91.703 100.59 89.1129C95.6169 87.0251 90.7977 92.3773 93.3939 97.1047C96.6147 102.97 88.8354 108.621 84.253 103.746C80.5591 99.816 73.9797 102.745 74.4286 108.12C74.9855 114.788 65.5799 116.787 63.3767 110.469C61.6007 105.377 54.3985 105.377 52.6225 110.469C50.4193 116.787 41.0137 114.788 41.5706 108.12C42.0195 102.745 35.4401 99.816 31.7462 103.746C27.1638 108.621 19.3845 102.97 22.6053 97.1047C25.2015 92.3773 20.3823 87.0251 15.4094 89.1129C9.24006 91.703 4.43222 83.3755 9.75998 79.3278C14.0545 76.065 11.8289 69.2154 6.43678 69.1C-0.25268 68.9569 -1.25779 59.3939 5.25573 57.8631C10.5061 56.6291 11.2589 49.4665 6.37984 47.1679C0.326928 44.3163 3.29835 35.1712 9.87138 36.422C15.1697 37.4303 18.7707 31.1931 15.2484 27.1087C10.8786 22.0417 17.3128 14.8958 22.8088 18.712C27.239 21.7881 33.0656 17.5548 31.5091 12.3909C29.578 5.98465 38.3624 2.07359 41.8311 7.79527C44.6271 12.4073 51.6718 10.9099 52.3502 5.55936Z" fill="#FED9FE"/>
</g>
<defs>
<clipPath id="clip0_6573_8141">
<rect width="116" height="115" fill="white"/>
</clipPath>
</defs>
</svg>
