<svg width="116" height="115" viewBox="0 0 116 115" fill="none" xmlns="http://www.w3.org/2000/svg">
<path d="M52.3506 5.55936C53.1921 -1.0785 62.8079 -1.07849 63.6494 5.55937C64.3278 10.9099 71.3725 12.4073 74.1685 7.79527C77.6372 2.07359 86.4216 5.98465 84.4905 12.3909C82.934 17.5548 88.7606 21.7881 93.1908 18.712C98.6868 14.8958 105.121 22.0417 100.751 27.1087C97.2289 31.1931 100.83 37.4303 106.128 36.422C112.701 35.1712 115.673 44.3163 109.62 47.1679C104.741 49.4665 105.494 56.6291 110.744 57.8631C117.257 59.3939 116.252 68.9569 109.563 69.1C104.171 69.2154 101.945 76.065 106.24 79.3278C111.567 83.3755 106.76 91.703 100.59 89.1129C95.6173 87.0251 90.7981 92.3773 93.3943 97.1047C96.6151 102.97 88.8358 108.621 84.2534 103.746C80.5595 99.816 73.9801 102.745 74.429 108.12C74.9859 114.788 65.5803 116.787 63.3771 110.469C61.6011 105.377 54.3989 105.377 52.6229 110.469C50.4197 116.787 41.0141 114.788 41.571 108.12C42.0199 102.745 35.4405 99.816 31.7466 103.746C27.1642 108.621 19.3849 102.97 22.6057 97.1047C25.2019 92.3773 20.3827 87.0251 15.4098 89.1129C9.24044 91.703 4.4326 83.3755 9.76036 79.3278C14.0549 76.065 11.8293 69.2154 6.43716 69.1C-0.252296 68.9569 -1.25741 59.3939 5.25611 57.8631C10.5065 56.6291 11.2593 49.4665 6.38022 47.1679C0.327312 44.3163 3.29873 35.1712 9.87176 36.422C15.1701 37.4303 18.7711 31.1931 15.2488 27.1087C10.879 22.0417 17.3132 14.8958 22.8092 18.712C27.2394 21.7881 33.066 17.5548 31.5095 12.3909C29.5784 5.98465 38.3628 2.07359 41.8315 7.79527C44.6275 12.4073 51.6722 10.9099 52.3506 5.55936Z" fill="#0E1E3D"/>
</svg>
